<?xml version="1.0" standalone="no"?>
<!DOCTYPE svg PUBLIC "-//W3C//DTD SVG 20010904//EN"
 "http://www.w3.org/TR/2001/REC-SVG-20010904/DTD/svg10.dtd">
<svg version="1.0" xmlns="http://www.w3.org/2000/svg"
 width="300.000000pt" height="300.000000pt" viewBox="0 0 300.000000 300.000000"
 preserveAspectRatio="xMidYMid meet">
<metadata>
Created by potrace 1.11, written by Peter Selinger 2001-2013
</metadata>
<g transform="translate(0.000000,300.000000) scale(0.100000,-0.100000)"
fill="#000000" stroke="none">
<path d="M605 2660 c-144 -22 -282 -69 -420 -143 l-80 -43 -3 -1038 -2 -1038
32 20 c63 39 163 85 245 113 72 24 106 33 213 54 14 3 72 8 130 11 203 12 442
-43 637 -146 l93 -48 2 446 c3 367 5 447 16 444 40 -8 71 -8 66 0 -3 5 -12 7
-20 4 -7 -3 -16 0 -20 6 -4 6 -3 8 4 4 5 -3 12 -2 14 4 5 14 29 -4 33 -26 2
-10 4 -213 4 -451 l1 -431 93 48 c189 99 360 143 562 144 179 1 253 -10 410
-61 78 -25 188 -75 253 -115 l32 -20 0 1021 0 1021 -42 31 c-71 51 -257 137
-358 164 -280 77 -630 23 -897 -138 l-53 -31 0 -404 c0 -351 -2 -403 -15 -399
-8 4 -17 1 -21 -5 -4 -7 -3 -8 4 -4 8 5 12 0 12 -13 0 -10 -6 -22 -12 -24 -10
-4 -9 -8 2 -16 10 -7 11 -11 3 -11 -7 0 -13 -5 -13 -11 0 -5 6 -7 13 -3 8 5 8
2 -2 -9 -11 -14 -11 -17 0 -17 11 0 11 -2 -1 -10 -13 -9 -13 -10 0 -10 13 0
13 -1 0 -10 -13 -9 -13 -10 0 -10 12 0 12 -2 1 -9 -10 -6 -10 -10 -1 -16 9 -6
9 -10 -1 -16 -12 -7 -11 -9 0 -9 11 0 10 -4 -5 -16 -10 -8 -14 -13 -7 -10 6 4
15 1 19 -5 4 -8 3 -9 -4 -5 -8 5 -11 -1 -9 -16 1 -12 -2 -23 -8 -23 -5 0 -16
-4 -24 -9 -11 -7 -13 -5 -8 7 3 9 1 19 -5 23 -6 4 -8 3 -5 -2 3 -6 1 -16 -4
-24 -7 -11 -9 2 -8 40 0 30 0 272 0 537 l-1 482 -57 39 c-125 85 -277 147
-432 176 -87 17 -267 20 -356 6z"/>
<path d="M1495 1542 c1 -25 -4 -39 -14 -44 -13 -5 -13 -7 2 -7 10 -1 15 -5 12
-11 -3 -5 -2 -10 3 -10 9 0 10 95 1 104 -3 3 -5 -11 -4 -32z"/>
<path d="M1496 1407 c3 -10 9 -15 12 -12 3 3 0 11 -7 18 -10 9 -11 8 -5 -6z"/>
<path d="M1460 1280 c0 -5 5 -10 11 -10 5 0 7 -5 3 -12 -4 -7 -3 -8 5 -4 9 6
9 11 0 22 -14 17 -19 18 -19 4z"/>
<path d="M1500 1266 c0 -2 7 -6 15 -10 8 -3 15 -1 15 4 0 6 -7 10 -15 10 -8 0
-15 -2 -15 -4z"/>
<path d="M738 535 c-2 -1 -41 -5 -88 -8 -112 -8 -259 -46 -365 -96 l-85 -40 0
-96 c0 -74 3 -95 13 -89 6 4 33 22 58 40 67 49 222 120 322 148 202 58 453 62
673 11 37 -8 69 -14 71 -12 6 7 -143 66 -230 91 -46 14 -119 29 -163 35 -78
11 -201 20 -206 16z"/>
<path d="M2125 528 c-86 -8 -190 -29 -270 -55 -63 -20 -196 -75 -192 -79 1 -2
45 5 97 16 221 43 424 41 615 -6 119 -30 266 -95 355 -158 25 -18 51 -35 58
-40 9 -5 12 15 12 88 l0 96 -49 24 c-186 95 -407 135 -626 114z"/>
</g>
</svg>
