<?xml version="1.0" standalone="no"?>
<!DOCTYPE svg PUBLIC "-//W3C//DTD SVG 20010904//EN"
 "http://www.w3.org/TR/2001/REC-SVG-20010904/DTD/svg10.dtd">
<svg version="1.0" xmlns="http://www.w3.org/2000/svg"
 width="742.000000pt" height="742.000000pt" viewBox="0 0 742.000000 742.000000"
 preserveAspectRatio="xMidYMid meet">
<metadata>
Created by potrace 1.11, written by Peter Selinger 2001-2013
</metadata>
<g transform="translate(0.000000,742.000000) scale(0.100000,-0.100000)"
fill="#000000" stroke="none">
<path d="M311 7398 c-74 -28 -142 -97 -170 -171 l-21 -58 0 -3284 c0 -3283 0
-3284 20 -3339 26 -69 85 -130 158 -164 l57 -27 3135 0 3135 0 46 21 c63 29
120 83 149 141 l25 48 0 3320 0 3320 -23 45 c-32 61 -77 106 -137 138 l-50 27
-3135 2 -3135 2 -54 -21z m689 -366 c92 -48 142 -118 160 -222 8 -46 10 -893
8 -2965 -3 -2443 -5 -2906 -17 -2937 -23 -61 -82 -129 -141 -162 -50 -28 -63
-31 -140 -31 -70 0 -93 4 -130 23 -61 32 -106 77 -138 137 l-27 50 0 2960 0
2960 23 45 c41 78 108 137 182 161 50 16 172 5 220 -19z"/>
</g>
</svg>
