<?xml version="1.0" standalone="no"?>
<!DOCTYPE svg PUBLIC "-//W3C//DTD SVG 20010904//EN"
 "http://www.w3.org/TR/2001/REC-SVG-20010904/DTD/svg10.dtd">
<svg version="1.0" xmlns="http://www.w3.org/2000/svg"
 width="1000.000000pt" height="1000.000000pt" viewBox="0 0 1000.000000 1000.000000"
 preserveAspectRatio="xMidYMid meet">
<metadata>
Created by potrace 1.11, written by Peter Selinger 2001-2013
</metadata>
<g transform="translate(0.000000,1000.000000) scale(0.100000,-0.100000)"
fill="#000000" stroke="none">
<path d="M1405 9905 c-51 -18 -120 -91 -134 -141 -16 -56 -15 -9013 0 -9069
15 -53 91 -129 144 -144 29 -8 962 -11 3360 -11 3199 0 3321 1 3360 19 51 23
93 65 116 116 18 39 19 196 19 4545 0 3264 -3 4516 -11 4545 -15 53 -91 129
-144 144 -29 8 -960 11 -3355 11 -2833 -1 -3321 -3 -3355 -15z m800 -466 c53
-15 129 -91 144 -144 16 -57 16 -8073 0 -8130 -15 -53 -91 -129 -144 -144 -52
-14 -268 -14 -320 0 -53 15 -129 91 -144 144 -15 56 -16 8073 0 8129 14 50 83
123 134 141 49 17 272 20 330 4z"/>
</g>
</svg>
